<svg version="1.2" baseProfile="tiny-ps" xmlns="http://www.w3.org/2000/svg" viewBox="0 0 1585 943" width="1585" height="943">
	<title>Adidas_Logo-svg (1)-svg</title>
	<style>
		tspan { white-space:pre }
		.shp0 { fill: #000000 } 
	</style>
	<g id="#000000ff">
		<path id="Layer" class="shp0" d="M729.03 183.97C833.13 122.67 937.35 61.55 1041.51 0.35C1113.15 124.78 1184.92 249.12 1256.71 373.44C1365.88 563.16 1475.46 752.66 1584.73 942.32C1444.41 942.37 1304.08 942.3 1163.75 942.34C1044.07 733.59 924.46 524.78 804.85 315.97C779.48 272.02 754.61 227.79 729.03 183.97Z" />
		<path id="Layer" class="shp0" d="M366.86 511.95C472.6 452.42 578.13 392.48 683.87 332.95C799.53 536.25 915.92 739.14 1031.74 942.34C954.42 942.32 877.1 942.34 799.79 942.33C737.06 942.09 674.32 942.86 611.59 942.66C530.01 799.1 448.43 655.52 366.86 511.95Z" />
		<path id="Layer" class="shp0" d="M0.23 836.36C104.3 775.78 208.49 715.37 312.6 654.85C368.34 750.71 424.23 846.48 479.99 942.33C339.68 942.34 199.37 942.32 59.06 942.34C39.44 907.02 19.79 871.7 0.23 836.36Z" />
	</g>
</svg>